<mxfile host="app.diagrams.net" agent="Mozilla/5.0 (Windows NT 10.0; Win64; x64) AppleWebKit/537.36 (KHTML, like Gecko) Chrome/128.0.0.0 Safari/537.36" version="24.7.5">
  <diagram name="Page-1" id="zINM_NtTZd1R49-j_S16">
    <mxGraphModel dx="1411" dy="706" grid="1" gridSize="10" guides="1" tooltips="1" connect="1" arrows="1" fold="1" page="1" pageScale="1" pageWidth="850" pageHeight="1100" math="0" shadow="0">
      <root>
        <mxCell id="0" />
        <mxCell id="1" parent="0" />
        <mxCell id="RTGAcHwAV_b_R4iHMzfL-28" value="security" style="rounded=0;whiteSpace=wrap;html=1;fillColor=none;" vertex="1" parent="1">
          <mxGeometry x="100" y="275" width="640" height="110" as="geometry" />
        </mxCell>
        <mxCell id="RTGAcHwAV_b_R4iHMzfL-1" value="Machine learning" style="rounded=0;whiteSpace=wrap;html=1;fillColor=none;" vertex="1" parent="1">
          <mxGeometry x="100" y="410" width="640" height="110" as="geometry" />
        </mxCell>
        <mxCell id="RTGAcHwAV_b_R4iHMzfL-2" value="Bussiness Logic/Controler" style="whiteSpace=wrap;html=1;rounded=0;fillColor=none;" vertex="1" parent="1">
          <mxGeometry x="100" y="150" width="640" height="110" as="geometry" />
        </mxCell>
        <mxCell id="RTGAcHwAV_b_R4iHMzfL-7" value="Database" style="whiteSpace=wrap;html=1;rounded=0;fillColor=none;" vertex="1" parent="1">
          <mxGeometry x="100" y="550" width="640" height="130" as="geometry" />
        </mxCell>
        <mxCell id="RTGAcHwAV_b_R4iHMzfL-9" value="Managment Console" style="rounded=0;whiteSpace=wrap;html=1;" vertex="1" parent="1">
          <mxGeometry x="130" y="170" width="120" height="60" as="geometry" />
        </mxCell>
        <mxCell id="RTGAcHwAV_b_R4iHMzfL-10" value="Agents" style="rounded=0;whiteSpace=wrap;html=1;" vertex="1" parent="1">
          <mxGeometry x="140" y="37.5" width="120" height="60" as="geometry" />
        </mxCell>
        <mxCell id="RTGAcHwAV_b_R4iHMzfL-11" value="Machine learning algorithms" style="rounded=0;whiteSpace=wrap;html=1;" vertex="1" parent="1">
          <mxGeometry x="130" y="430" width="120" height="60" as="geometry" />
        </mxCell>
        <mxCell id="RTGAcHwAV_b_R4iHMzfL-13" value="antivirus solutions,&lt;div&gt;&lt;br&gt;&lt;/div&gt;" style="rounded=0;whiteSpace=wrap;html=1;" vertex="1" parent="1">
          <mxGeometry x="270" y="310" width="120" height="60" as="geometry" />
        </mxCell>
        <mxCell id="RTGAcHwAV_b_R4iHMzfL-14" value="encryption" style="rounded=1;whiteSpace=wrap;html=1;" vertex="1" parent="1">
          <mxGeometry x="510" y="300" width="120" height="60" as="geometry" />
        </mxCell>
        <mxCell id="RTGAcHwAV_b_R4iHMzfL-15" value="Database" style="rounded=0;whiteSpace=wrap;html=1;" vertex="1" parent="1">
          <mxGeometry x="130" y="570" width="120" height="60" as="geometry" />
        </mxCell>
        <mxCell id="RTGAcHwAV_b_R4iHMzfL-24" value="Frontend" style="rounded=0;whiteSpace=wrap;html=1;" vertex="1" parent="1">
          <mxGeometry x="560" y="30" width="120" height="60" as="geometry" />
        </mxCell>
        <mxCell id="RTGAcHwAV_b_R4iHMzfL-26" value="Browser (for users)" style="whiteSpace=wrap;html=1;rounded=0;fillColor=none;" vertex="1" parent="1">
          <mxGeometry x="100" y="10" width="640" height="115" as="geometry" />
        </mxCell>
        <mxCell id="RTGAcHwAV_b_R4iHMzfL-29" value="firewalls" style="rounded=0;whiteSpace=wrap;html=1;" vertex="1" parent="1">
          <mxGeometry x="140" y="290" width="120" height="60" as="geometry" />
        </mxCell>
      </root>
    </mxGraphModel>
  </diagram>
</mxfile>
